<svg width="16" height="17" viewBox="0 0 16 17" fill="none" xmlns="http://www.w3.org/2000/svg">
<path d="M12.8 0.578125H3.19996C1.53328 0.578125 0.199951 1.91145 0.199951 3.57813V13.1781C0.199951 14.8448 1.53328 16.1781 3.19996 16.1781H12.8C14.4666 16.1781 15.8 14.8448 15.8 13.1781V3.57812C15.8 1.91145 14.4666 0.578125 12.8 0.578125ZM13.6666 2.37813H14V5.04478H11.3333V2.37813H13.6666ZM5.79997 6.77814C6.26663 6.11146 7.1333 5.64479 7.99997 5.64479C8.86664 5.64479 9.73331 6.11146 10.2 6.77814C10.5333 7.2448 10.7333 7.77813 10.7333 8.37813C10.7333 9.91145 9.46663 11.1115 7.99997 11.1115C6.5333 11.1115 5.26664 9.91146 5.26664 8.37813C5.26663 7.77813 5.46663 7.2448 5.79997 6.77814ZM14.2666 13.1781C14.2666 13.9781 13.6 14.6448 12.8 14.6448H3.19996C2.39996 14.6448 1.73329 13.9781 1.73329 13.1781V6.77814H4.06662C3.86661 7.2448 3.73329 7.8448 3.73329 8.37813C3.73329 10.7115 5.66663 12.6448 7.99996 12.6448C10.3333 12.6448 12.2666 10.7115 12.2666 8.37813C12.2666 7.8448 12.1333 7.24478 11.9333 6.77814H14.2666L14.2666 13.1781Z" fill="white"/>
</svg>
