<svg width="19" height="16" viewBox="0 0 19 16" fill="none" xmlns="http://www.w3.org/2000/svg">
<path d="M18.8005 1.87742C18.1149 2.18146 17.3773 2.3871 16.6038 2.47894C17.3935 2.00576 17.9996 1.25707 18.2857 0.363495C17.5467 0.801871 16.7279 1.11989 15.8571 1.2913C15.1595 0.548315 14.1655 0.0839844 13.0648 0.0839844C10.9531 0.0839844 9.24039 1.7967 9.24039 3.90843C9.24039 4.2082 9.27433 4.49997 9.33993 4.78005C6.16149 4.62062 3.34328 3.09814 1.45687 0.783617C1.12773 1.34834 0.938917 2.00576 0.938917 2.70654C0.938917 4.03307 1.61459 5.20417 2.64022 5.88982C2.01361 5.87014 1.4235 5.69816 0.908114 5.41095C0.907828 5.42721 0.907828 5.44346 0.907828 5.45943C0.907828 7.31248 2.22666 8.85806 3.97589 9.20916C3.65531 9.29701 3.31676 9.34349 2.96851 9.34349C2.72151 9.34349 2.48222 9.31982 2.24891 9.27533C2.73549 10.7944 4.14759 11.9002 5.82152 11.9313C4.51238 12.9572 2.86355 13.5684 1.07126 13.5684C0.763224 13.5684 0.458044 13.5504 0.159424 13.5148C1.85103 14.6003 3.8618 15.2332 6.02145 15.2332C13.056 15.2332 16.903 9.40567 16.903 4.35137C16.903 4.18566 16.8993 4.02052 16.8919 3.85681C17.6397 3.31775 18.288 2.64436 18.8005 1.87742Z" fill="#F1F2F2"/>
</svg>
