<svg width="34" height="41" viewBox="0 0 34 41" fill="none" xmlns="http://www.w3.org/2000/svg">
<path fill-rule="evenodd" clip-rule="evenodd" d="M0 17.0165C0 7.81664 7.68776 0.380859 16.9868 0.380859C26.3122 0.380859 34 7.81664 34 17.0165C34 21.6523 32.314 25.9561 29.539 29.6041C26.4776 33.6279 22.7044 37.1339 18.457 39.8857C17.485 40.5217 16.6078 40.5697 15.5408 39.8857C11.2695 37.1339 7.49618 33.6279 4.461 29.6041C1.68396 25.9561 0 21.6523 0 17.0165ZM11.3885 17.5345C11.3885 20.6163 13.9034 23.0403 16.9868 23.0403C20.0724 23.0403 22.6116 20.6163 22.6116 17.5345C22.6116 14.4765 20.0724 11.9345 16.9868 11.9345C13.9034 11.9345 11.3885 14.4765 11.3885 17.5345Z" fill="white"/>
</svg>
