<svg width="10" height="12" viewBox="0 0 10 12" fill="none" xmlns="http://www.w3.org/2000/svg">
<path fill-rule="evenodd" clip-rule="evenodd" d="M0.967773 5.01582C0.967773 2.65458 2.94093 0.746094 5.32764 0.746094C7.72112 0.746094 9.69428 2.65458 9.69428 5.01582C9.69428 6.20565 9.26155 7.31028 8.54931 8.24658C7.76357 9.27934 6.79513 10.1792 5.70498 10.8855C5.45551 11.0487 5.23036 11.061 4.95651 10.8855C3.86022 10.1792 2.89176 9.27934 2.11274 8.24658C1.39998 7.31028 0.967773 6.20565 0.967773 5.01582ZM3.89076 5.14877C3.89076 5.93975 4.53625 6.5619 5.32764 6.5619C6.1196 6.5619 6.77131 5.93975 6.77131 5.14877C6.77131 4.3639 6.1196 3.71148 5.32764 3.71148C4.53625 3.71148 3.89076 4.3639 3.89076 5.14877Z" fill="#FACD49"/>
</svg>
